<svg width="155" height="20" viewBox="0 0 155 20" fill="none" xmlns="http://www.w3.org/2000/svg">
<path d="M15.834 19H11.4033L4.85254 7.49805V19H0.396484V0.515625H4.85254L11.3906 12.0176V0.515625H15.834V19ZM26.0156 0.515625H30.459V13.1982C30.459 14.3747 30.1839 15.4242 29.6338 16.3467C29.0921 17.2692 28.3304 17.9844 27.3486 18.4922C26.3753 19 25.2878 19.2539 24.0859 19.2539C22.0716 19.2539 20.5059 18.7461 19.3887 17.7305C18.2715 16.7148 17.7129 15.276 17.7129 13.4141H22.1816C22.1816 14.2604 22.3255 14.874 22.6133 15.2549C22.9095 15.6357 23.4004 15.8262 24.0859 15.8262C24.7038 15.8262 25.1777 15.5977 25.5078 15.1406C25.8464 14.6751 26.0156 14.0277 26.0156 13.1982V0.515625ZM47.7754 0.515625V12.6143C47.7754 13.9854 47.4834 15.1745 46.8994 16.1816C46.3154 17.1803 45.4775 17.9421 44.3857 18.4668C43.2939 18.9915 42.0033 19.2539 40.5137 19.2539C38.2624 19.2539 36.4893 18.6699 35.1943 17.502C33.8994 16.334 33.2393 14.7344 33.2139 12.7031V0.515625H37.6953V12.792C37.7461 14.8148 38.6855 15.8262 40.5137 15.8262C41.4362 15.8262 42.1344 15.5723 42.6084 15.0645C43.0824 14.5566 43.3193 13.7314 43.3193 12.5889V0.515625H47.7754ZM55.0244 12.7285V19H50.5684V0.515625H57.9443C59.3577 0.515625 60.6061 0.777995 61.6895 1.30273C62.7812 1.81901 63.6234 2.55957 64.2158 3.52441C64.8167 4.48079 65.1172 5.56836 65.1172 6.78711C65.1172 8.58984 64.4697 10.0329 63.1748 11.1162C61.8883 12.1911 60.1195 12.7285 57.8682 12.7285H55.0244ZM55.0244 9.28809H57.9443C58.8076 9.28809 59.4635 9.07227 59.9121 8.64062C60.3691 8.20898 60.5977 7.59961 60.5977 6.8125C60.5977 5.94922 60.3649 5.25944 59.8994 4.74316C59.4339 4.22689 58.7992 3.96452 57.9951 3.95605H55.0244V9.28809ZM82.0146 3.95605H76.4668V19H72.0107V3.95605H66.5645V0.515625H82.0146V3.95605ZM99.1533 14.0869C99.1533 13.4352 98.9206 12.9274 98.4551 12.5635C97.998 12.1995 97.1898 11.8229 96.0303 11.4336C94.8708 11.0443 93.9229 10.6676 93.1865 10.3037C90.7913 9.12728 89.5938 7.51074 89.5938 5.4541C89.5938 4.43001 89.89 3.52865 90.4824 2.75C91.0833 1.96289 91.9297 1.35352 93.0215 0.921875C94.1133 0.481771 95.3405 0.261719 96.7031 0.261719C98.0319 0.261719 99.221 0.498698 100.271 0.972656C101.328 1.44661 102.149 2.1237 102.733 3.00391C103.317 3.87565 103.609 4.87435 103.609 6H99.166C99.166 5.24674 98.9333 4.66276 98.4678 4.24805C98.0107 3.83333 97.3887 3.62598 96.6016 3.62598C95.806 3.62598 95.1755 3.80371 94.71 4.15918C94.2529 4.50618 94.0244 4.95052 94.0244 5.49219C94.0244 5.96615 94.2783 6.39779 94.7861 6.78711C95.2939 7.16797 96.1868 7.56576 97.4648 7.98047C98.7428 8.38672 99.7923 8.82682 100.613 9.30078C102.611 10.4518 103.609 12.0387 103.609 14.0615C103.609 15.6781 103 16.9476 101.781 17.8701C100.562 18.7926 98.891 19.2539 96.7666 19.2539C95.2686 19.2539 93.9102 18.9873 92.6914 18.4541C91.4811 17.9124 90.5671 17.1761 89.9492 16.2451C89.3398 15.3057 89.0352 14.2266 89.0352 13.0078H93.5039C93.5039 13.998 93.7578 14.7301 94.2656 15.2041C94.7819 15.6696 95.6156 15.9023 96.7666 15.9023C97.5029 15.9023 98.0827 15.7458 98.5059 15.4326C98.9375 15.111 99.1533 14.6624 99.1533 14.0869ZM116.394 15.5469H110.287L109.221 19H104.46L111.239 0.515625H115.429L122.259 19H117.473L116.394 15.5469ZM111.354 12.1064H115.327L113.334 5.69531L111.354 12.1064ZM133.151 14.0869C133.151 13.4352 132.919 12.9274 132.453 12.5635C131.996 12.1995 131.188 11.8229 130.028 11.4336C128.869 11.0443 127.921 10.6676 127.185 10.3037C124.789 9.12728 123.592 7.51074 123.592 5.4541C123.592 4.43001 123.888 3.52865 124.48 2.75C125.081 1.96289 125.928 1.35352 127.02 0.921875C128.111 0.481771 129.339 0.261719 130.701 0.261719C132.03 0.261719 133.219 0.498698 134.269 0.972656C135.326 1.44661 136.147 2.1237 136.731 3.00391C137.315 3.87565 137.607 4.87435 137.607 6H133.164C133.164 5.24674 132.931 4.66276 132.466 4.24805C132.009 3.83333 131.387 3.62598 130.6 3.62598C129.804 3.62598 129.174 3.80371 128.708 4.15918C128.251 4.50618 128.022 4.95052 128.022 5.49219C128.022 5.96615 128.276 6.39779 128.784 6.78711C129.292 7.16797 130.185 7.56576 131.463 7.98047C132.741 8.38672 133.79 8.82682 134.611 9.30078C136.609 10.4518 137.607 12.0387 137.607 14.0615C137.607 15.6781 136.998 16.9476 135.779 17.8701C134.561 18.7926 132.889 19.2539 130.765 19.2539C129.267 19.2539 127.908 18.9873 126.689 18.4541C125.479 17.9124 124.565 17.1761 123.947 16.2451C123.338 15.3057 123.033 14.2266 123.033 13.0078H127.502C127.502 13.998 127.756 14.7301 128.264 15.2041C128.78 15.6696 129.614 15.9023 130.765 15.9023C131.501 15.9023 132.081 15.7458 132.504 15.4326C132.936 15.111 133.151 14.6624 133.151 14.0869ZM154.403 3.95605H148.855V19H144.399V3.95605H138.953V0.515625H154.403V3.95605Z" fill="#53A0FD"/>
<path d="M15.834 19H11.4033L4.85254 7.49805V19H0.396484V0.515625H4.85254L11.3906 12.0176V0.515625H15.834V19ZM26.0156 0.515625H30.459V13.1982C30.459 14.3747 30.1839 15.4242 29.6338 16.3467C29.0921 17.2692 28.3304 17.9844 27.3486 18.4922C26.3753 19 25.2878 19.2539 24.0859 19.2539C22.0716 19.2539 20.5059 18.7461 19.3887 17.7305C18.2715 16.7148 17.7129 15.276 17.7129 13.4141H22.1816C22.1816 14.2604 22.3255 14.874 22.6133 15.2549C22.9095 15.6357 23.4004 15.8262 24.0859 15.8262C24.7038 15.8262 25.1777 15.5977 25.5078 15.1406C25.8464 14.6751 26.0156 14.0277 26.0156 13.1982V0.515625ZM47.7754 0.515625V12.6143C47.7754 13.9854 47.4834 15.1745 46.8994 16.1816C46.3154 17.1803 45.4775 17.9421 44.3857 18.4668C43.2939 18.9915 42.0033 19.2539 40.5137 19.2539C38.2624 19.2539 36.4893 18.6699 35.1943 17.502C33.8994 16.334 33.2393 14.7344 33.2139 12.7031V0.515625H37.6953V12.792C37.7461 14.8148 38.6855 15.8262 40.5137 15.8262C41.4362 15.8262 42.1344 15.5723 42.6084 15.0645C43.0824 14.5566 43.3193 13.7314 43.3193 12.5889V0.515625H47.7754ZM55.0244 12.7285V19H50.5684V0.515625H57.9443C59.3577 0.515625 60.6061 0.777995 61.6895 1.30273C62.7812 1.81901 63.6234 2.55957 64.2158 3.52441C64.8167 4.48079 65.1172 5.56836 65.1172 6.78711C65.1172 8.58984 64.4697 10.0329 63.1748 11.1162C61.8883 12.1911 60.1195 12.7285 57.8682 12.7285H55.0244ZM55.0244 9.28809H57.9443C58.8076 9.28809 59.4635 9.07227 59.9121 8.64062C60.3691 8.20898 60.5977 7.59961 60.5977 6.8125C60.5977 5.94922 60.3649 5.25944 59.8994 4.74316C59.4339 4.22689 58.7992 3.96452 57.9951 3.95605H55.0244V9.28809ZM82.0146 3.95605H76.4668V19H72.0107V3.95605H66.5645V0.515625H82.0146V3.95605ZM99.1533 14.0869C99.1533 13.4352 98.9206 12.9274 98.4551 12.5635C97.998 12.1995 97.1898 11.8229 96.0303 11.4336C94.8708 11.0443 93.9229 10.6676 93.1865 10.3037C90.7913 9.12728 89.5938 7.51074 89.5938 5.4541C89.5938 4.43001 89.89 3.52865 90.4824 2.75C91.0833 1.96289 91.9297 1.35352 93.0215 0.921875C94.1133 0.481771 95.3405 0.261719 96.7031 0.261719C98.0319 0.261719 99.221 0.498698 100.271 0.972656C101.328 1.44661 102.149 2.1237 102.733 3.00391C103.317 3.87565 103.609 4.87435 103.609 6H99.166C99.166 5.24674 98.9333 4.66276 98.4678 4.24805C98.0107 3.83333 97.3887 3.62598 96.6016 3.62598C95.806 3.62598 95.1755 3.80371 94.71 4.15918C94.2529 4.50618 94.0244 4.95052 94.0244 5.49219C94.0244 5.96615 94.2783 6.39779 94.7861 6.78711C95.2939 7.16797 96.1868 7.56576 97.4648 7.98047C98.7428 8.38672 99.7923 8.82682 100.613 9.30078C102.611 10.4518 103.609 12.0387 103.609 14.0615C103.609 15.6781 103 16.9476 101.781 17.8701C100.562 18.7926 98.891 19.2539 96.7666 19.2539C95.2686 19.2539 93.9102 18.9873 92.6914 18.4541C91.4811 17.9124 90.5671 17.1761 89.9492 16.2451C89.3398 15.3057 89.0352 14.2266 89.0352 13.0078H93.5039C93.5039 13.998 93.7578 14.7301 94.2656 15.2041C94.7819 15.6696 95.6156 15.9023 96.7666 15.9023C97.5029 15.9023 98.0827 15.7458 98.5059 15.4326C98.9375 15.111 99.1533 14.6624 99.1533 14.0869ZM116.394 15.5469H110.287L109.221 19H104.46L111.239 0.515625H115.429L122.259 19H117.473L116.394 15.5469ZM111.354 12.1064H115.327L113.334 5.69531L111.354 12.1064ZM133.151 14.0869C133.151 13.4352 132.919 12.9274 132.453 12.5635C131.996 12.1995 131.188 11.8229 130.028 11.4336C128.869 11.0443 127.921 10.6676 127.185 10.3037C124.789 9.12728 123.592 7.51074 123.592 5.4541C123.592 4.43001 123.888 3.52865 124.48 2.75C125.081 1.96289 125.928 1.35352 127.02 0.921875C128.111 0.481771 129.339 0.261719 130.701 0.261719C132.03 0.261719 133.219 0.498698 134.269 0.972656C135.326 1.44661 136.147 2.1237 136.731 3.00391C137.315 3.87565 137.607 4.87435 137.607 6H133.164C133.164 5.24674 132.931 4.66276 132.466 4.24805C132.009 3.83333 131.387 3.62598 130.6 3.62598C129.804 3.62598 129.174 3.80371 128.708 4.15918C128.251 4.50618 128.022 4.95052 128.022 5.49219C128.022 5.96615 128.276 6.39779 128.784 6.78711C129.292 7.16797 130.185 7.56576 131.463 7.98047C132.741 8.38672 133.79 8.82682 134.611 9.30078C136.609 10.4518 137.607 12.0387 137.607 14.0615C137.607 15.6781 136.998 16.9476 135.779 17.8701C134.561 18.7926 132.889 19.2539 130.765 19.2539C129.267 19.2539 127.908 18.9873 126.689 18.4541C125.479 17.9124 124.565 17.1761 123.947 16.2451C123.338 15.3057 123.033 14.2266 123.033 13.0078H127.502C127.502 13.998 127.756 14.7301 128.264 15.2041C128.78 15.6696 129.614 15.9023 130.765 15.9023C131.501 15.9023 132.081 15.7458 132.504 15.4326C132.936 15.111 133.151 14.6624 133.151 14.0869ZM154.403 3.95605H148.855V19H144.399V3.95605H138.953V0.515625H154.403V3.95605Z" fill="url(#paint0_linear)"/>
<defs>
<linearGradient id="paint0_linear" x1="155" y1="9.99999" x2="-1" y2="9.99999" gradientUnits="userSpaceOnUse">
<stop stop-color="#50E3C2"/>
<stop offset="1" stop-color="white" stop-opacity="0"/>
</linearGradient>
</defs>
</svg>
